REM DIRINDEX 1\2,1\3
REM DIRNAME folder01,folder02,folder03
TITLE ""
FILE "2621-2640.mp3" MP3
  TRACK 01 AUDIO
    TITLE "0:"
    INDEX 01 00:00:00
  TRACK 02 AUDIO
    TITLE "2:cjc039_4241"
    INDEX 01 00:00:25
  TRACK 03 AUDIO
    TITLE "0:"
    INDEX 01 00:01:34
  TRACK 04 AUDIO
    TITLE "3:cjc039_4242"
    INDEX 01 00:02:12
  TRACK 05 AUDIO
    TITLE "0:"
    INDEX 01 00:06:28
  TRACK 06 AUDIO
    TITLE "2:cjc039_4243"
    INDEX 01 00:08:01
  TRACK 07 AUDIO
    TITLE "0:"
    INDEX 01 00:09:34
  TRACK 08 AUDIO
    TITLE "3:cjc039_4244"
    INDEX 01 00:10:10
  TRACK 09 AUDIO
    TITLE "0:"
    INDEX 01 00:14:21
  TRACK 10 AUDIO
    TITLE "2:cjc039_4245"
    INDEX 01 00:15:72
  TRACK 11 AUDIO
    TITLE "0:"
    INDEX 01 00:17:06
  TRACK 12 AUDIO
    TITLE "3:cjc039_4246"
    INDEX 01 00:17:65
  TRACK 13 AUDIO
    TITLE "0:"
    INDEX 01 00:21:68
  TRACK 14 AUDIO
    TITLE "2:cjc039_4247"
    INDEX 01 00:23:40
  TRACK 15 AUDIO
    TITLE "0:"
    INDEX 01 00:24:61
  TRACK 16 AUDIO
    TITLE "3:cjc039_4248"
    INDEX 01 00:25:37
  TRACK 17 AUDIO
    TITLE "0:"
    INDEX 01 00:30:06
  TRACK 18 AUDIO
    TITLE "2:cjc039_4249"
    INDEX 01 00:31:57
  TRACK 19 AUDIO
    TITLE "0:"
    INDEX 01 00:32:56
  TRACK 20 AUDIO
    TITLE "3:cjc039_4250"
    INDEX 01 00:33:36
  TRACK 21 AUDIO
    TITLE "0:"
    INDEX 01 00:36:72
  TRACK 22 AUDIO
    TITLE "2:cjc039_4251"
    INDEX 01 00:38:47
  TRACK 23 AUDIO
    TITLE "0:"
    INDEX 01 00:40:01
  TRACK 24 AUDIO
    TITLE "3:cjc039_4252"
    INDEX 01 00:40:50
  TRACK 25 AUDIO
    TITLE "0:"
    INDEX 01 00:44:42
  TRACK 26 AUDIO
    TITLE "2:cjc039_4253"
    INDEX 01 00:46:21
  TRACK 27 AUDIO
    TITLE "0:"
    INDEX 01 00:47:27
  TRACK 28 AUDIO
    TITLE "3:cjc039_4254"
    INDEX 01 00:48:04
  TRACK 29 AUDIO
    TITLE "0:"
    INDEX 01 00:51:24
  TRACK 30 AUDIO
    TITLE "2:cjc039_4255"
    INDEX 01 00:53:00
  TRACK 31 AUDIO
    TITLE "0:"
    INDEX 01 00:54:40
  TRACK 32 AUDIO
    TITLE "3:cjc039_4256"
    INDEX 01 00:55:22
  TRACK 33 AUDIO
    TITLE "0:"
    INDEX 01 00:59:34
  TRACK 34 AUDIO
    TITLE "2:cjc039_4257"
    INDEX 01 01:01:11
  TRACK 35 AUDIO
    TITLE "0:"
    INDEX 01 01:02:14
  TRACK 36 AUDIO
    TITLE "3:cjc039_4258"
    INDEX 01 01:02:69
  TRACK 37 AUDIO
    TITLE "0:"
    INDEX 01 01:05:71
  TRACK 38 AUDIO
    TITLE "2:cjc039_4259"
    INDEX 01 01:07:47
  TRACK 39 AUDIO
    TITLE "0:"
    INDEX 01 01:08:70
  TRACK 40 AUDIO
    TITLE "3:cjc039_4260"
    INDEX 01 01:09:46
  TRACK 41 AUDIO
    TITLE "0:"
    INDEX 01 01:13:73
  TRACK 42 AUDIO
    TITLE "2:cjc039_4261"
    INDEX 01 01:15:48
  TRACK 43 AUDIO
    TITLE "0:"
    INDEX 01 01:16:54
  TRACK 44 AUDIO
    TITLE "3:cjc039_4262"
    INDEX 01 01:17:35
  TRACK 45 AUDIO
    TITLE "0:"
    INDEX 01 01:20:65
  TRACK 46 AUDIO
    TITLE "2:cjc039_4263"
    INDEX 01 01:22:41
  TRACK 47 AUDIO
    TITLE "0:"
    INDEX 01 01:23:65
  TRACK 48 AUDIO
    TITLE "3:cjc039_4264"
    INDEX 01 01:24:45
  TRACK 49 AUDIO
    TITLE "0:"
    INDEX 01 01:29:31
  TRACK 50 AUDIO
    TITLE "2:cjc039_4265"
    INDEX 01 01:30:11
  TRACK 51 AUDIO
    TITLE "0:"
    INDEX 01 01:31:24
  TRACK 52 AUDIO
    TITLE "3:cjc039_4266"
    INDEX 01 01:32:08
  TRACK 53 AUDIO
    TITLE "0:"
    INDEX 01 01:35:29
  TRACK 54 AUDIO
    TITLE "2:cjc039_4267"
    INDEX 01 01:37:07
  TRACK 55 AUDIO
    TITLE "0:"
    INDEX 01 01:38:30
  TRACK 56 AUDIO
    TITLE "3:cjc039_4268"
    INDEX 01 01:39:06
  TRACK 57 AUDIO
    TITLE "0:"
    INDEX 01 01:43:17
  TRACK 58 AUDIO
    TITLE "2:cjc039_4269"
    INDEX 01 01:44:68
  TRACK 59 AUDIO
    TITLE "0:"
    INDEX 01 01:45:65
  TRACK 60 AUDIO
    TITLE "3:cjc039_4270"
    INDEX 01 01:46:47
  TRACK 61 AUDIO
    TITLE "0:"
    INDEX 01 01:49:55
  TRACK 62 AUDIO
    TITLE "2:cjc039_4271"
    INDEX 01 01:51:32
  TRACK 63 AUDIO
    TITLE "0:"
    INDEX 01 01:52:69
  TRACK 64 AUDIO
    TITLE "3:cjc039_4272"
    INDEX 01 01:53:51
  TRACK 65 AUDIO
    TITLE "0:"
    INDEX 01 01:58:07
  TRACK 66 AUDIO
    TITLE "2:cjc039_4273"
    INDEX 01 01:59:61
  TRACK 67 AUDIO
    TITLE "0:"
    INDEX 01 02:00:63
  TRACK 68 AUDIO
    TITLE "3:cjc039_4274"
    INDEX 01 02:01:43
  TRACK 69 AUDIO
    TITLE "0:"
    INDEX 01 02:05:15
  TRACK 70 AUDIO
    TITLE "2:cjc039_4275"
    INDEX 01 02:06:63
  TRACK 71 AUDIO
    TITLE "0:"
    INDEX 01 02:08:31
  TRACK 72 AUDIO
    TITLE "3:cjc039_4276"
    INDEX 01 02:09:07
  TRACK 73 AUDIO
    TITLE "0:"
    INDEX 01 02:14:30
  TRACK 74 AUDIO
    TITLE "2:cjc039_4277"
    INDEX 01 02:16:03
  TRACK 75 AUDIO
    TITLE "0:"
    INDEX 01 02:17:16
  TRACK 76 AUDIO
    TITLE "3:cjc039_4278"
    INDEX 01 02:17:65
  TRACK 77 AUDIO
    TITLE "0:"
    INDEX 01 02:20:48
  TRACK 78 AUDIO
    TITLE "2:cjc039_4279"
    INDEX 01 02:22:27
  TRACK 79 AUDIO
    TITLE "0:"
    INDEX 01 02:23:38
  TRACK 80 AUDIO
    TITLE "3:cjc039_4280"
    INDEX 01 02:24:20
  TRACK 81 AUDIO
    TITLE "0:"
    INDEX 01 02:27:71
